<?xml version="1.0" standalone="no"?>
<svg xmlns="http://www.w3.org/2000/svg" width="48" height="48"><rect width="48" height="48" opacity="0"></rect><g><path d="M23.09 8.98Q22.08 9.07 21.26 9.65Q20.45 10.22 20.02 11.14Q19.97 11.18 19.92 11.21Q19.87 11.23 19.82 11.28Q19.73 11.33 19.3 11.33Q17.81 11.47 16.85 12.55Q15.89 13.63 15.89 15.12L15.89 23.86Q14.98 23.18 14.04 22.99Q13.1 22.8 12.19 23.09Q10.94 23.47 10.13 24.48Q9.31 25.49 9.31 26.78Q9.31 28.08 10.37 29.23L17.57 36.14Q18.38 36.96 19.46 37.44Q20.54 37.92 21.74 37.92L28.56 37.92Q30.19 37.92 31.58 37.08Q32.98 36.24 33.77 34.85Q34.56 33.46 34.56 31.78L34.56 16.42Q34.51 15.46 34.01 14.66Q33.5 13.87 32.69 13.42Q31.87 12.96 30.91 12.96Q30.67 11.57 29.62 10.63Q28.56 9.7 27.12 9.7Q26.64 9.74 26.16 9.84L26.02 9.89Q25.87 9.84 25.73 9.84Q24.72 8.98 23.38 8.98L23.09 8.98ZM23.38 11.62Q23.81 11.62 24.1 11.88Q24.38 12.14 24.48 12.58L24.48 21.94Q24.48 22.27 24.7 22.51Q24.91 22.75 25.25 22.75Q25.54 22.75 25.73 22.56Q25.92 22.37 26.02 22.08L26.02 13.49Q26.02 13.01 26.35 12.65Q26.69 12.29 27.12 12.29Q27.55 12.29 27.84 12.58Q28.13 12.86 28.22 13.3L28.22 21.94Q28.22 22.27 28.46 22.51Q28.7 22.75 29.04 22.75Q29.28 22.75 29.5 22.56Q29.71 22.37 29.76 22.08L29.76 16.7Q29.76 16.22 30.1 15.89Q30.43 15.55 30.91 15.55Q31.3 15.55 31.61 15.84Q31.92 16.13 32.02 16.51L32.02 31.78Q32.02 33.12 31.08 34.15Q30.14 35.18 28.85 35.33L21.74 35.33Q21.17 35.33 20.62 35.11Q20.06 34.9 19.63 34.51L12.34 27.5Q11.9 27.12 12.05 26.52Q12.19 25.92 12.7 25.56Q13.2 25.2 13.68 25.54L17.47 28.03Q17.86 28.27 18.14 28.15Q18.43 28.03 18.48 27.6L18.48 15.12Q18.48 14.64 18.82 14.28Q19.15 13.92 19.58 13.92Q20.02 13.92 20.33 14.21Q20.64 14.5 20.69 14.93L20.69 21.94Q20.74 22.27 20.95 22.51Q21.17 22.75 21.46 22.75Q21.74 22.75 21.96 22.56Q22.18 22.37 22.22 22.08L22.22 12.77Q22.27 12.24 22.58 11.93Q22.9 11.62 23.38 11.62Z" fill="rgba(0,0,0,0.9019607843137255)"></path><path d="M15.12 3.98Q13.87 3.98 12.82 4.61Q11.76 5.23 11.14 6.29L2.21 21.7Q1.58 22.75 1.58 23.98Q1.58 25.2 2.21 26.3L11.14 41.66Q11.76 42.77 12.82 43.39Q13.87 44.02 15.12 44.02L32.88 44.02Q34.13 44.02 35.21 43.39Q36.29 42.77 36.91 41.66L45.79 26.3Q46.42 25.2 46.42 23.98Q46.42 22.75 45.79 21.7L36.91 6.29Q36.29 5.23 35.21 4.61Q34.13 3.98 32.88 3.98L15.12 3.98ZM32.88 6.58Q33.5 6.62 33.96 6.89Q34.42 7.15 34.66 7.58L43.54 22.99Q43.78 23.57 43.8 24.02Q43.82 24.48 43.63 24.86L43.54 25.01L34.51 40.56Q34.22 40.94 33.79 41.18Q33.36 41.42 32.88 41.42L14.88 41.38Q14.4 41.33 13.99 41.04Q13.58 40.75 13.34 40.37L4.46 25.01Q4.22 24.48 4.22 24Q4.22 23.52 4.42 23.09L4.46 22.99L13.49 7.39Q13.78 7.01 14.21 6.79Q14.64 6.58 15.12 6.58L32.88 6.58Z" fill="rgba(0,0,0,0.9019607843137255)"></path></g></svg>