<?xml version="1.0" standalone="no"?>
<svg xmlns="http://www.w3.org/2000/svg" width="48" height="48"><rect width="48" height="48" opacity="0"></rect><g><path d="M16.51 19.2Q17.14 19.2 17.57 18.77Q18 18.34 18 17.71Q18 17.09 17.57 16.66Q17.14 16.22 16.51 16.22L14.35 16.22Q13.73 16.22 13.3 16.66Q12.86 17.09 12.86 17.71Q12.86 18.34 13.3 18.77Q13.73 19.2 14.35 19.2L16.51 19.2ZM25.2 19.2Q25.82 19.2 26.26 18.77Q26.69 18.34 26.69 17.71Q26.69 17.09 26.26 16.66Q25.82 16.22 25.2 16.22L23.04 16.22Q22.42 16.22 21.98 16.66Q21.55 17.09 21.55 17.71Q21.55 18.34 21.98 18.77Q22.42 19.2 23.04 19.2L25.2 19.2ZM33.89 19.2Q34.51 19.2 34.94 18.77Q35.38 18.34 35.38 17.71Q35.38 17.09 34.94 16.66Q34.51 16.22 33.89 16.22L31.73 16.22Q31.1 16.22 30.67 16.66Q30.24 17.09 30.24 17.71Q30.24 18.34 30.67 18.77Q31.1 19.2 31.73 19.2L33.89 19.2ZM16.51 25.78Q17.14 25.78 17.57 25.34Q18 24.91 18 24.29Q18 23.66 17.57 23.23Q17.14 22.8 16.51 22.8L14.35 22.8Q13.73 22.8 13.3 23.23Q12.86 23.66 12.86 24.29Q12.86 24.91 13.3 25.34Q13.73 25.78 14.35 25.78L16.51 25.78ZM25.2 25.78Q25.82 25.78 26.26 25.34Q26.69 24.91 26.69 24.29Q26.69 23.66 26.26 23.23Q25.82 22.8 25.2 22.8L23.04 22.8Q22.42 22.8 21.98 23.23Q21.55 23.66 21.55 24.29Q21.55 24.91 21.98 25.34Q22.42 25.78 23.04 25.78L25.2 25.78ZM33.89 25.78Q34.51 25.78 34.94 25.34Q35.38 24.91 35.38 24.29Q35.38 23.66 34.94 23.23Q34.51 22.8 33.89 22.8L31.73 22.8Q31.1 22.8 30.67 23.23Q30.24 23.66 30.24 24.29Q30.24 24.91 30.67 25.34Q31.1 25.78 31.73 25.78L33.89 25.78ZM33.89 32.3Q34.51 32.3 34.94 31.87Q35.38 31.44 35.38 30.82Q35.38 30.19 34.94 29.76Q34.51 29.33 33.89 29.33L14.06 29.33Q13.44 29.33 13.01 29.76Q12.58 30.19 12.58 30.82Q12.58 31.44 13.01 31.87Q13.44 32.3 14.06 32.3L33.89 32.3ZM38.02 7.01Q39.26 7.01 40.13 7.87Q40.99 8.74 40.99 9.98L40.99 38.02Q40.99 39.22 40.13 40.1Q39.26 40.99 38.02 40.99L9.98 40.99Q8.78 40.99 7.9 40.1Q7.01 39.22 7.01 38.02L7.01 9.98Q7.01 8.74 7.9 7.87Q8.78 7.01 9.98 7.01L38.02 7.01ZM9.98 3.98Q8.35 3.98 6.98 4.8Q5.62 5.62 4.8 6.98Q3.98 8.35 3.98 9.98L3.98 38.02Q3.98 39.65 4.8 41.02Q5.62 42.38 6.98 43.2Q8.35 44.02 9.98 44.02L38.02 44.02Q39.65 44.02 41.02 43.2Q42.38 42.38 43.2 41.02Q44.02 39.65 44.02 38.02L44.02 9.98Q44.02 8.35 43.2 6.98Q42.38 5.62 41.02 4.8Q39.65 3.98 38.02 3.98L9.98 3.98Z" fill="rgba(0,0,0,0.9019607843137255)"></path></g></svg>