<?xml version="1.0" standalone="no"?>
<svg xmlns="http://www.w3.org/2000/svg" width="48" height="48"><rect width="48" height="48" opacity="0"></rect><g><path d="M10.66 43.34Q11.81 43.34 13.73 42.62Q15.65 41.9 17.57 40.9L18.19 40.56Q18.86 40.22 19.06 40.22Q21.41 40.7 24 40.7Q29.52 40.7 34.18 38.28Q38.83 35.86 41.57 31.73Q44.3 27.6 44.3 22.7Q44.3 17.81 41.57 13.66Q38.83 9.5 34.18 7.08Q29.52 4.66 24 4.66Q18.48 4.66 13.82 7.08Q9.17 9.5 6.43 13.66Q3.7 17.81 3.7 22.7Q3.7 26.5 5.42 30Q7.15 33.5 10.32 36.05Q10.94 36.53 10.61 37.78Q10.27 39.02 9.46 40.94L9.31 41.28Q8.98 42 9.41 42.67Q9.84 43.34 10.66 43.34ZM24 7.63Q28.7 7.63 32.66 9.67Q36.62 11.71 38.95 15.17Q41.28 18.62 41.28 22.7Q41.28 26.78 38.95 30.24Q36.62 33.7 32.66 35.71Q28.7 37.73 24 37.73Q21.84 37.73 19.73 37.3Q18.96 37.1 18.19 37.32Q17.42 37.54 16.46 38.11Q16.32 38.16 16.18 38.26L15.98 38.35Q15.36 38.64 14.69 38.95Q14.02 39.26 13.2 39.6Q13.78 37.78 13.63 36.24Q13.49 34.7 12.19 33.7Q9.55 31.58 8.11 28.7Q6.67 25.82 6.67 22.7Q6.67 18.62 9 15.17Q11.33 11.71 15.31 9.67Q19.3 7.63 24 7.63Z" fill="rgba(0,0,0,0.9019607843137255)"></path></g></svg>