<?xml version="1.0" standalone="no"?>
<svg xmlns="http://www.w3.org/2000/svg" width="48" height="48"><rect width="48" height="48" opacity="0"></rect><g><path d="M18 3.98Q17.38 3.98 16.94 4.44Q16.51 4.9 16.51 5.52L16.51 33.65L11.86 33.65Q11.28 33.65 10.9 34.03Q10.51 34.42 10.46 34.97Q10.42 35.52 10.75 35.95L17.04 43.49Q17.42 44.02 18.02 44.04Q18.62 44.06 19.06 43.63Q19.49 43.2 19.49 42.58L19.49 37.49L19.49 5.52Q19.49 4.9 19.06 4.44Q18.62 3.98 18 3.98ZM30.96 4.51Q30.58 4.03 29.98 4.01Q29.38 3.98 28.92 4.39Q28.46 4.8 28.46 5.42L28.46 10.51L28.46 42.48Q28.46 43.1 28.92 43.56Q29.38 44.02 30 44.02Q30.62 44.02 31.06 43.56Q31.49 43.1 31.49 42.48L31.49 14.35L36.1 14.35Q36.67 14.35 37.08 13.97Q37.49 13.58 37.54 13.03Q37.58 12.48 37.2 12.05L30.96 4.51Z" fill="rgba(0,0,0,0.9019607843137255)"></path></g></svg>