<svg width="201" height="188" xmlns="http://www.w3.org/2000/svg" xmlns:xlink="http://www.w3.org/1999/xlink" xml:space="preserve" overflow="hidden"><g transform="translate(-1036 -336)"><path d="M41.7114 93.2537C41.7114 89.1479 42.3984 85.124 43.7725 81.1492 45.1465 77.1743 47.1584 73.6084 49.792 70.4514 52.4255 67.2944 55.6316 64.7427 59.3938 62.7961 63.156 60.8332 67.4417 59.8682 72.2671 59.8682 78.0413 59.8682 83.0466 61.2095 87.2832 63.8921 91.5198 66.5747 94.6768 70.1243 96.7542 74.5408L84.208 84.5679C83.6519 82.9321 82.8994 81.5745 81.9834 80.4949 81.051 79.4153 80.0369 78.5647 78.9082 77.9431 77.7795 77.3052 76.6182 76.8635 75.4077 76.6182 74.1973 76.3728 73.0359 76.2419 71.9072 76.2419 69.5518 76.2419 67.5234 76.7654 65.8059 77.7959 64.0884 78.8428 62.698 80.1841 61.6021 81.8689 60.5061 83.5374 59.6882 85.4348 59.1648 87.5449 58.625 89.655 58.3633 91.7488 58.3633 93.8425 58.3633 96.1816 58.6741 98.4226 59.2957 100.565 59.9172 102.708 60.8169 104.606 61.9946 106.241 63.1724 107.877 64.6118 109.186 66.3293 110.167 68.0469 111.149 69.9607 111.639 72.0872 111.639 73.2158 111.639 74.3608 111.492 75.5386 111.214 76.7163 110.936 77.8613 110.462 78.9409 109.791 80.0205 109.12 81.0183 108.27 81.8853 107.239 82.7522 106.192 83.4392 104.917 83.9463 103.412L97.3267 112.392C96.427 114.845 95.0693 117.054 93.2373 119.017 91.4216 120.979 89.3442 122.615 87.0051 123.94 84.6824 125.265 82.1797 126.279 79.5134 126.966 76.8472 127.653 74.2463 128.013 71.7273 128.013 67.2944 128.013 63.2378 127.015 59.5737 125.036 55.8933 123.057 52.7363 120.423 50.0701 117.135 47.4038 113.864 45.3428 110.135 43.887 105.98 42.4312 101.76 41.7114 97.5393 41.7114 93.2537L41.7114 93.2537 41.7114 93.2537ZM25.7957 0 175.204 0C182.303 0 188.748 2.89526 193.427 7.57349 198.105 12.2517 201 18.6965 201 25.7957L201 162.037C201 169.136 198.105 175.581 193.427 180.259 188.748 184.937 182.303 187.832 175.204 187.832L25.7957 187.832C18.6965 187.832 12.2517 184.937 7.57349 180.259 2.89526 175.581 0 169.136 0 162.037L0 25.7957C0 18.6965 2.89526 12.2354 7.57349 7.57349 12.2354 2.89526 18.6965 0 25.7957 0L25.7957 0ZM175.204 16.2102 25.7957 16.2102C23.1621 16.2102 20.7739 17.2898 19.04 19.0237 17.3062 20.7576 16.2266 23.1621 16.2266 25.7793L16.2266 162.02C16.2266 164.654 17.3062 167.042 19.04 168.776 20.7739 170.51 23.1785 171.589 25.7957 171.589L175.204 171.589C177.838 171.589 180.226 170.51 181.96 168.776 183.694 167.042 184.773 164.637 184.773 162.02L184.773 25.7957C184.773 23.1621 183.694 20.7739 181.96 19.04 180.226 17.2898 177.838 16.2102 175.204 16.2102L175.204 16.2102ZM103.673 93.2537C103.673 89.1479 104.36 85.124 105.734 81.1492 107.108 77.1743 109.12 73.6084 111.754 70.4514 114.387 67.2944 117.594 64.7427 121.356 62.7961 125.118 60.8332 129.404 59.8682 134.229 59.8682 140.003 59.8682 145.009 61.2095 149.245 63.8921 153.482 66.5747 156.639 70.1243 158.716 74.5408L146.17 84.5679C145.614 82.9321 144.861 81.5745 143.945 80.4949 143.013 79.4153 141.999 78.5647 140.87 77.9431 139.741 77.3052 138.58 76.8635 137.37 76.6182 136.159 76.3728 134.998 76.2419 133.869 76.2419 131.514 76.2419 129.485 76.7654 127.768 77.7959 126.05 78.8428 124.66 80.1841 123.564 81.8689 122.468 83.5537 121.65 85.4348 121.127 87.5449 120.587 89.655 120.325 91.7488 120.325 93.8425 120.325 96.1816 120.636 98.4226 121.258 100.565 121.879 102.708 122.779 104.606 123.957 106.241 125.134 107.877 126.574 109.186 128.291 110.167 130.009 111.149 131.923 111.639 134.049 111.639 135.178 111.639 136.323 111.492 137.5 111.214 138.678 110.936 139.807 110.462 140.903 109.791 141.999 109.137 142.98 108.27 143.847 107.239 144.714 106.192 145.401 104.917 145.908 103.412L159.289 112.392C158.389 114.845 157.031 117.054 155.199 119.017 153.384 120.979 151.306 122.615 148.967 123.94 146.644 125.265 144.142 126.279 141.475 126.966 138.809 127.653 136.208 128.013 133.689 128.013 129.256 128.013 125.2 127.015 121.536 125.036 117.855 123.057 114.698 120.423 112.032 117.135 109.366 113.864 107.305 110.135 105.849 105.98 104.393 101.76 103.657 97.5393 103.673 93.2537L103.673 93.2537 103.673 93.2537Z" fill="#FFFFFF" transform="matrix(1 0 0 1.00039 1036 336.047)"/></g></svg>