<svg width="1856" height="1857" xmlns="http://www.w3.org/2000/svg" xmlns:xlink="http://www.w3.org/1999/xlink" xml:space="preserve" overflow="hidden"><g transform="translate(-3139 -309)"><path d="M4067 309C4119.88 309 4163.46 348.827 4169.42 400.135L4170.11 412.167 4170.11 2062.83C4170.11 2119.81 4123.95 2166 4067 2166 4014.12 2166 3970.54 2126.18 3964.58 2074.87L3963.89 2062.83 3963.89 412.167C3963.89 355.19 4010.05 309 4067 309ZM3654.56 618.5C3711.5 618.5 3757.67 664.69 3757.67 721.667L3757.67 1753.33C3757.67 1810.31 3711.5 1856.5 3654.56 1856.5 3597.61 1856.5 3551.44 1810.31 3551.44 1753.33L3551.44 721.667C3551.44 664.69 3597.61 618.5 3654.56 618.5ZM4479.44 618.5C4536.39 618.5 4582.56 664.69 4582.56 721.667L4582.56 1753.33C4582.56 1810.31 4536.39 1856.5 4479.44 1856.5 4422.5 1856.5 4376.33 1810.31 4376.33 1753.33L4376.33 721.667C4376.33 664.69 4422.5 618.5 4479.44 618.5ZM3242.11 928C3299.06 928 3345.22 974.19 3345.22 1031.17L3345.22 1443.83C3345.22 1500.81 3299.06 1547 3242.11 1547 3185.17 1547 3139 1500.81 3139 1443.83L3139 1031.17C3139 974.19 3185.17 928 3242.11 928ZM4891.89 928C4944.77 928 4988.35 967.827 4994.31 1019.14L4995 1031.17 4995 1443.83C4995 1500.81 4948.84 1547 4891.89 1547 4839.01 1547 4795.43 1507.17 4789.47 1455.86L4788.78 1443.83 4788.78 1031.17C4788.78 974.19 4834.94 928 4891.89 928Z" fill="#FFFFFF" fill-rule="evenodd"/></g></svg>